<svg width="26" height="25" viewBox="0 0 26 25" fill="none" xmlns="http://www.w3.org/2000/svg">
    <mask id="path-1-outside-1_68_918" maskUnits="userSpaceOnUse" x="2" y="1" width="23" height="24"
        fill="black">
        <rect fill="white" x="2" y="1" width="23" height="24" />
        <path
            d="M23.7129 20.7949C24.082 21.2051 24.082 21.8203 23.6719 22.1895L22.5234 23.3379C22.1543 23.748 21.5391 23.748 21.1289 23.3379L17.0684 19.2773C16.8633 19.0723 16.7812 18.8262 16.7812 18.5801V17.8828C15.3047 19.0312 13.5 19.6875 11.5312 19.6875C6.81445 19.6875 3 15.873 3 11.1562C3 6.48047 6.81445 2.625 11.5312 2.625C16.207 2.625 20.0625 6.48047 20.0625 11.1562C20.0625 13.166 19.3652 14.9707 18.2578 16.4062H18.9141C19.1602 16.4062 19.4062 16.5293 19.6113 16.6934L23.7129 20.7949ZM11.5312 16.4062C14.4023 16.4062 16.7812 14.0684 16.7812 11.1562C16.7812 8.28516 14.4023 5.90625 11.5312 5.90625C8.61914 5.90625 6.28125 8.28516 6.28125 11.1562C6.28125 14.0684 8.61914 16.4062 11.5312 16.4062Z" />
    </mask>
    <path
        d="M23.7129 20.7949C24.082 21.2051 24.082 21.8203 23.6719 22.1895L22.5234 23.3379C22.1543 23.748 21.5391 23.748 21.1289 23.3379L17.0684 19.2773C16.8633 19.0723 16.7812 18.8262 16.7812 18.5801V17.8828C15.3047 19.0312 13.5 19.6875 11.5312 19.6875C6.81445 19.6875 3 15.873 3 11.1562C3 6.48047 6.81445 2.625 11.5312 2.625C16.207 2.625 20.0625 6.48047 20.0625 11.1562C20.0625 13.166 19.3652 14.9707 18.2578 16.4062H18.9141C19.1602 16.4062 19.4062 16.5293 19.6113 16.6934L23.7129 20.7949ZM11.5312 16.4062C14.4023 16.4062 16.7812 14.0684 16.7812 11.1562C16.7812 8.28516 14.4023 5.90625 11.5312 5.90625C8.61914 5.90625 6.28125 8.28516 6.28125 11.1562C6.28125 14.0684 8.61914 16.4062 11.5312 16.4062Z"
        fill="white" />
    <path
        d="M23.7129 20.7949L24.4562 20.126L24.4386 20.1064L24.42 20.0878L23.7129 20.7949ZM23.6719 22.1895L23.0029 21.4462L22.9834 21.4638L22.9648 21.4823L23.6719 22.1895ZM22.5234 23.3379L21.8163 22.6308L21.7977 22.6494L21.7801 22.6689L22.5234 23.3379ZM16.7812 17.8828H17.7812V15.8382L16.1673 17.0935L16.7812 17.8828ZM18.2578 16.4062L17.466 15.7954L16.2234 17.4062H18.2578V16.4062ZM19.6113 16.6934L20.3184 15.9863L20.2793 15.9471L20.236 15.9125L19.6113 16.6934ZM22.9696 21.4639C22.9872 21.4835 22.9847 21.4945 22.9848 21.4872C22.9849 21.4832 22.9859 21.4752 22.9905 21.465C22.9927 21.4601 22.9953 21.4557 22.998 21.452C23.0007 21.4483 23.0027 21.4464 23.0029 21.4462L24.3408 22.9327C25.2059 22.1542 25.1535 20.9008 24.4562 20.126L22.9696 21.4639ZM22.9648 21.4823L21.8163 22.6308L23.2305 24.045L24.379 22.8966L22.9648 21.4823ZM21.7801 22.6689C21.7814 22.6676 21.7889 22.6603 21.8032 22.654C21.8169 22.6479 21.8305 22.6455 21.8416 22.6455C21.8524 22.6455 21.8579 22.6478 21.8577 22.6477C21.8576 22.6476 21.8556 22.6468 21.8521 22.6444C21.8485 22.642 21.843 22.6378 21.836 22.6308L20.4218 24.045C21.2006 24.8238 22.4807 24.8803 23.2667 24.0069L21.7801 22.6689ZM21.836 22.6308L17.7755 18.5702L16.3613 19.9845L20.4218 24.045L21.836 22.6308ZM17.7755 18.5702C17.7716 18.5664 17.7716 18.5657 17.7734 18.5685C17.7753 18.5712 17.7774 18.5752 17.7791 18.5797C17.7809 18.5841 17.7815 18.5871 17.7816 18.5879C17.7817 18.5885 17.7812 18.5861 17.7812 18.5801H15.7812C15.7812 19.0623 15.949 19.5722 16.3613 19.9845L17.7755 18.5702ZM17.7812 18.5801V17.8828H15.7812V18.5801H17.7812ZM16.1673 17.0935C14.8605 18.1098 13.2705 18.6875 11.5312 18.6875V20.6875C13.7295 20.6875 15.7488 19.9527 17.3952 18.6722L16.1673 17.0935ZM11.5312 18.6875C7.36674 18.6875 4 15.3208 4 11.1562H2C2 16.4253 6.26217 20.6875 11.5312 20.6875V18.6875ZM4 11.1562C4 7.02962 7.36986 3.625 11.5312 3.625V1.625C6.25904 1.625 2 5.93131 2 11.1562H4ZM11.5312 3.625C15.6547 3.625 19.0625 7.03275 19.0625 11.1562H21.0625C21.0625 5.92818 16.7593 1.625 11.5312 1.625V3.625ZM19.0625 11.1562C19.0625 12.928 18.4492 14.521 17.466 15.7954L19.0496 17.0171C20.2813 15.4204 21.0625 13.404 21.0625 11.1562H19.0625ZM18.2578 17.4062H18.9141V15.4062H18.2578V17.4062ZM18.9141 17.4062C18.8709 17.4062 18.8576 17.3959 18.8794 17.4054C18.9009 17.4147 18.9387 17.4359 18.9866 17.4742L20.236 15.9125C19.9422 15.6774 19.4793 15.4062 18.9141 15.4062V17.4062ZM18.9042 17.4005L23.0058 21.502L24.42 20.0878L20.3184 15.9863L18.9042 17.4005ZM11.5312 17.4062C14.9495 17.4062 17.7812 14.6257 17.7812 11.1562H15.7812C15.7812 13.511 13.8551 15.4062 11.5312 15.4062V17.4062ZM17.7812 11.1562C17.7812 7.73287 14.9546 4.90625 11.5312 4.90625V6.90625C13.8501 6.90625 15.7812 8.83744 15.7812 11.1562H17.7812ZM11.5312 4.90625C8.06178 4.90625 5.28125 7.73796 5.28125 11.1562H7.28125C7.28125 8.83235 9.1765 6.90625 11.5312 6.90625V4.90625ZM5.28125 11.1562C5.28125 14.6206 8.06686 17.4062 11.5312 17.4062V15.4062C9.17143 15.4062 7.28125 13.5161 7.28125 11.1562H5.28125Z"
        fill="#1C3343" mask="url(#path-1-outside-1_68_918)" />
</svg>
