<svg width="32" height="32" viewBox="0 0 32 32" fill="none" xmlns="http://www.w3.org/2000/svg">
<g clip-path="url(#clip0_68_732)">
<path d="M14.0003 22.6667H5.33366V20H14.0003C14.852 20.0003 15.6873 20.2337 16.4158 20.6748C17.1444 21.1159 17.7383 21.748 18.1332 22.5026C18.5282 23.2571 18.7091 24.1054 18.6564 24.9554C18.6037 25.8054 18.3194 26.6248 17.8343 27.3248C17.3492 28.0248 16.6817 28.5787 15.9043 28.9265C15.1269 29.2743 14.2691 29.4027 13.424 29.2978C12.5788 29.1929 11.7784 28.8587 11.1096 28.3315C10.4407 27.8042 9.92896 27.104 9.62966 26.3067L12.127 25.3693C12.2552 25.7111 12.4745 26.0112 12.7612 26.2372C13.0478 26.4632 13.3908 26.6064 13.753 26.6514C14.1152 26.6964 14.4829 26.6414 14.816 26.4924C15.1492 26.3434 15.4353 26.106 15.6432 25.806C15.8512 25.506 15.973 25.1549 15.9957 24.7906C16.0183 24.4263 15.9407 24.0627 15.7715 23.7393C15.6023 23.4159 15.3478 23.145 15.0355 22.9559C14.7233 22.7668 14.3653 22.6668 14.0003 22.6667ZM6.66699 14.6667H24.667C25.5187 14.667 26.354 14.9003 27.0825 15.3415C27.811 15.7826 28.4049 16.4147 28.7999 17.1692C29.1948 17.9238 29.3757 18.772 29.3231 19.6221C29.2704 20.4721 28.9861 21.2915 28.5009 21.9915C28.0158 22.6915 27.3484 23.2454 26.571 23.5932C25.7936 23.9409 24.9358 24.0694 24.0906 23.9645C23.2454 23.8596 22.4451 23.5254 21.7762 22.9982C21.1074 22.4709 20.5956 21.7707 20.2963 20.9733L22.7937 20.036C22.9219 20.3777 23.1412 20.6779 23.4278 20.9038C23.7145 21.1298 24.0575 21.2731 24.4197 21.3181C24.7819 21.3631 25.1495 21.3081 25.4827 21.159C25.8159 21.01 26.102 20.7727 26.3099 20.4727C26.5178 20.1727 26.6397 19.8215 26.6623 19.4572C26.6849 19.0929 26.6074 18.7294 26.4382 18.406C26.2689 18.0826 26.0144 17.8117 25.7022 17.6226C25.39 17.4335 25.032 17.3335 24.667 17.3333H6.66699C5.60613 17.3333 4.58871 16.9119 3.83857 16.1618C3.08842 15.4116 2.66699 14.3942 2.66699 13.3333C2.66699 12.2725 3.08842 11.255 3.83857 10.5049C4.58871 9.75475 5.60613 9.33333 6.66699 9.33333H18.0003C18.3653 9.33317 18.7233 9.23314 19.0355 9.04406C19.3478 8.85498 19.6023 8.58407 19.7715 8.26067C19.9407 7.93728 20.0183 7.57373 19.9957 7.20943C19.973 6.84513 19.8512 6.49396 19.6432 6.19398C19.4353 5.894 19.1492 5.65663 18.816 5.50761C18.4829 5.35859 18.1152 5.30359 17.753 5.34857C17.3908 5.39356 17.0478 5.53681 16.7612 5.76281C16.4745 5.9888 16.2552 6.28893 16.127 6.63066L13.6297 5.69466C14.0143 4.67173 14.7456 3.81618 15.6962 3.27707C16.6469 2.73797 17.7565 2.54948 18.8318 2.74446C19.9071 2.93944 20.88 3.50552 21.5808 4.34407C22.2816 5.18262 22.666 6.24048 22.667 7.33333C22.667 8.571 22.1753 9.75799 21.3002 10.6332C20.425 11.5083 19.238 12 18.0003 12H6.66699C6.31337 12 5.97423 12.1405 5.72418 12.3905C5.47413 12.6406 5.33366 12.9797 5.33366 13.3333C5.33366 13.6869 5.47413 14.0261 5.72418 14.2761C5.97423 14.5262 6.31337 14.6667 6.66699 14.6667Z" fill="#1C3343"/>
</g>
<defs>
<clipPath id="clip0_68_732">
<rect width="32" height="32" fill="white"/>
</clipPath>
</defs>
</svg>
