<svg width="32" height="32" viewBox="0 0 32 32" fill="none" xmlns="http://www.w3.org/2000/svg">
<g clip-path="url(#clip0_68_726)">
<path d="M16.9425 23.724C18.0452 24.8267 19.0598 25.3333 19.9998 25.3333C20.5038 25.3333 20.9065 25.244 21.6492 24.9653L22.1718 24.7627C23.5718 24.2 24.2785 24 25.3332 24C26.9518 24 28.5052 24.7267 29.9812 26.1067L30.2758 26.3907L28.3905 28.276C27.2878 27.1733 26.2732 26.6667 25.3332 26.6667C24.8292 26.6667 24.4265 26.756 23.6838 27.0347L23.1612 27.2373C21.7612 27.7987 21.0545 28 19.9998 28C18.3812 28 16.8278 27.2733 15.3518 25.8933L15.0572 25.6093L16.9425 23.724ZM11.9998 4C11.9998 5.06087 12.4213 6.07828 13.1714 6.82843C13.9216 7.57857 14.939 8 15.9998 8C17.0607 8 18.0781 7.57857 18.8283 6.82843C19.5784 6.07828 19.9998 5.06087 19.9998 4H27.9998C28.3535 4 28.6926 4.14048 28.9426 4.39052C29.1927 4.64057 29.3332 4.97971 29.3332 5.33333V14.6667C29.3332 15.0203 29.1927 15.3594 28.9426 15.6095C28.6926 15.8595 28.3535 16 27.9998 16H22.6638V13.3333L26.6665 13.332V6.66533H22.1105L22.0878 6.72C21.5822 7.85047 20.7718 8.81783 19.7474 9.51371C18.723 10.2096 17.5251 10.6065 16.2878 10.66L15.9998 10.6667C14.7124 10.6668 13.4524 10.2942 12.3721 9.59383C11.2918 8.89349 10.4373 7.89537 9.91184 6.72L9.88784 6.66667H5.33317V13.3333L9.33184 13.332V25.3333H13.3332V28H7.99984C7.64622 28 7.30708 27.8595 7.05703 27.6095C6.80698 27.3594 6.6665 27.0203 6.6665 26.6667L6.66517 15.9987L3.99984 16C3.64622 16 3.30708 15.8595 3.05703 15.6095C2.80698 15.3594 2.6665 15.0203 2.6665 14.6667V5.33333C2.6665 4.97971 2.80698 4.64057 3.05703 4.39052C3.30708 4.14048 3.64622 4 3.99984 4H11.9998ZM16.9425 18.3907C18.0452 19.4933 19.0598 20 19.9998 20C20.5038 20 20.9065 19.9107 21.6492 19.632L22.1718 19.4293C23.5718 18.8667 24.2785 18.6667 25.3332 18.6667C26.9518 18.6667 28.5052 19.3933 29.9812 20.7733L30.2758 21.0573L28.3905 22.9427C27.2878 21.84 26.2732 21.3333 25.3332 21.3333C24.8292 21.3333 24.4265 21.4227 23.6838 21.7013L23.1612 21.904C21.7612 22.4653 21.0545 22.6667 19.9998 22.6667C18.3812 22.6667 16.8278 21.94 15.3518 20.56L15.0572 20.276L16.9425 18.3907Z" fill="#1C3343"/>
</g>
<defs>
<clipPath id="clip0_68_726">
<rect width="32" height="32" fill="white"/>
</clipPath>
</defs>
</svg>
