<svg width="28" height="25" viewBox="0 0 28 25" fill="none" xmlns="http://www.w3.org/2000/svg">
<path d="M23.3332 21.6667H4.6665V23C4.6665 23.3536 4.52603 23.6928 4.27598 23.9428C4.02593 24.1929 3.68679 24.3333 3.33317 24.3333H1.99984C1.64622 24.3333 1.30708 24.1929 1.05703 23.9428C0.80698 23.6928 0.666504 23.3536 0.666504 23V9.66668L3.97317 1.94934C4.17893 1.46934 4.52111 1.06033 4.95724 0.773051C5.39337 0.485773 5.90426 0.33288 6.4265 0.333345H21.5732C22.095 0.333402 22.6053 0.48654 23.0409 0.773785C23.4765 1.06103 23.8183 1.46976 24.0238 1.94934L27.3332 9.66668V23C27.3332 23.3536 27.1927 23.6928 26.9426 23.9428C26.6926 24.1929 26.3535 24.3333 25.9998 24.3333H24.6665C24.3129 24.3333 23.9737 24.1929 23.7237 23.9428C23.4736 23.6928 23.3332 23.3536 23.3332 23V21.6667ZM24.6665 12.3333H3.33317V19H24.6665V12.3333ZM3.56784 9.66668H24.4318L21.5745 3.00001H6.4265L3.56917 9.66668H3.56784ZM6.6665 17.6667C6.13607 17.6667 5.62736 17.456 5.25229 17.0809C4.87722 16.7058 4.6665 16.1971 4.6665 15.6667C4.6665 15.1362 4.87722 14.6275 5.25229 14.2525C5.62736 13.8774 6.13607 13.6667 6.6665 13.6667C7.19694 13.6667 7.70565 13.8774 8.08072 14.2525C8.45579 14.6275 8.6665 15.1362 8.6665 15.6667C8.6665 16.1971 8.45579 16.7058 8.08072 17.0809C7.70565 17.456 7.19694 17.6667 6.6665 17.6667ZM21.3332 17.6667C20.8027 17.6667 20.294 17.456 19.919 17.0809C19.5439 16.7058 19.3332 16.1971 19.3332 15.6667C19.3332 15.1362 19.5439 14.6275 19.919 14.2525C20.294 13.8774 20.8027 13.6667 21.3332 13.6667C21.8636 13.6667 22.3723 13.8774 22.7474 14.2525C23.1225 14.6275 23.3332 15.1362 23.3332 15.6667C23.3332 16.1971 23.1225 16.7058 22.7474 17.0809C22.3723 17.456 21.8636 17.6667 21.3332 17.6667Z" fill="#1C3343"/>
</svg>
