<svg width="32" height="24" viewBox="0 0 32 24" fill="none" xmlns="http://www.w3.org/2000/svg">
<path d="M0.919922 5.32933C5.18538 1.87375 10.5104 -0.00812521 15.9999 -4.34439e-06C21.7133 -4.34439e-06 26.9599 1.996 31.0799 5.32933L29.4053 7.404C25.6135 4.3321 20.8798 2.65924 15.9999 2.66666C10.9213 2.66666 6.25859 4.44 2.59459 7.404L0.919922 5.32933ZM5.10792 10.516C8.18872 8.01999 12.0349 6.66072 15.9999 6.66666C20.1253 6.66666 23.9146 8.108 26.8919 10.5147L25.2159 12.5893C22.609 10.4778 19.3547 9.32802 15.9999 9.33333C12.5093 9.33333 9.30259 10.5533 6.78392 12.5893L5.10792 10.5147V10.516ZM9.29725 15.7027C11.193 14.1665 13.5599 13.3299 15.9999 13.3333C18.5386 13.3333 20.8706 14.22 22.7026 15.7013L21.0266 17.776C19.6047 16.6243 17.8297 15.9972 15.9999 16C14.0959 16 12.3466 16.6653 10.9733 17.776L9.29725 15.7013V15.7027ZM13.4866 20.8893C14.1973 20.313 15.0849 19.9989 15.9999 20C16.9519 20 17.8266 20.3333 18.5133 20.888L15.9999 24L13.4866 20.888V20.8893Z" fill="#1C3343"/>
</svg>
