<svg width="34" height="35" viewBox="0 0 34 35" fill="none" xmlns="http://www.w3.org/2000/svg">
<mask id="path-1-outside-1_317_1176" maskUnits="userSpaceOnUse" x="2.09766" y="2.34723" width="29" height="30" fill="black">
<rect fill="white" x="2.09766" y="2.34723" width="29" height="30"/>
<path d="M4.09766 31.3889L4.1671 14.6805C4.1671 13.8333 4.56988 13.0278 5.23654 12.5L14.9588 4.93056C15.9588 4.15278 17.3616 4.15278 18.3754 4.93056L28.0977 12.4861C28.7782 13.0139 29.1671 13.8194 29.1671 14.6805V31.3889"/>
</mask>
<path d="M4.1671 14.6805L5.6671 14.6867V14.6805H4.1671ZM5.23654 12.5L4.31502 11.3164L4.30549 11.324L5.23654 12.5ZM14.9588 4.93056L14.0379 3.74653L14.0373 3.74699L14.9588 4.93056ZM18.3754 4.93056L19.2959 3.74615L19.2884 3.74042L18.3754 4.93056ZM28.0977 12.4861L27.1772 13.6705L27.1784 13.6715L28.0977 12.4861ZM5.59764 31.3951L5.66709 14.6867L2.66712 14.6743L2.59767 31.3826L5.59764 31.3951ZM5.6671 14.6805C5.6671 14.3082 5.84716 13.9298 6.1676 13.6761L4.30549 11.324C3.2926 12.1258 2.6671 13.3584 2.6671 14.6805H5.6671ZM6.15804 13.6836L15.8803 6.11413L14.0373 3.74699L4.31505 11.3165L6.15804 13.6836ZM15.8797 6.11459C16.3343 5.76099 16.9834 5.75319 17.4625 6.12071L19.2884 3.74042C17.7397 2.55238 15.5832 2.54458 14.0379 3.74653L15.8797 6.11459ZM17.455 6.11495L27.1772 13.6705L29.0181 11.3017L19.2959 3.74617L17.455 6.11495ZM27.1784 13.6715C27.4872 13.9109 27.6671 14.2761 27.6671 14.6805H30.6671C30.6671 13.3627 30.0693 12.1169 29.0169 11.3008L27.1784 13.6715ZM27.6671 14.6805V31.3889H30.6671V14.6805H27.6671Z" fill="white" mask="url(#path-1-outside-1_317_1176)"/>
<path d="M4.1671 14.6805L5.6671 14.6867V14.6805H4.1671ZM5.23654 12.5L4.31502 11.3164L4.30549 11.324L5.23654 12.5ZM14.9588 4.93056L14.0379 3.74653L14.0373 3.74699L14.9588 4.93056ZM18.3754 4.93056L19.2959 3.74615L19.2884 3.74042L18.3754 4.93056ZM28.0977 12.4861L27.1772 13.6705L27.1784 13.6715L28.0977 12.4861ZM5.59764 31.3951L5.66709 14.6867L2.66712 14.6743L2.59767 31.3826L5.59764 31.3951ZM5.6671 14.6805C5.6671 14.3082 5.84716 13.9298 6.1676 13.6761L4.30549 11.324C3.2926 12.1258 2.6671 13.3584 2.6671 14.6805H5.6671ZM6.15804 13.6836L15.8803 6.11413L14.0373 3.74699L4.31505 11.3165L6.15804 13.6836ZM15.8797 6.11459C16.3343 5.76099 16.9834 5.75319 17.4625 6.12071L19.2884 3.74042C17.7397 2.55238 15.5832 2.54458 14.0379 3.74653L15.8797 6.11459ZM17.455 6.11495L27.1772 13.6705L29.0181 11.3017L19.2959 3.74617L17.455 6.11495ZM27.1784 13.6715C27.4872 13.9109 27.6671 14.2761 27.6671 14.6805H30.6671C30.6671 13.3627 30.0693 12.1169 29.0169 11.3008L27.1784 13.6715ZM27.6671 14.6805V31.3889H30.6671V14.6805H27.6671Z" fill="black" mask="url(#path-1-outside-1_317_1176)"/>
<path d="M8.97266 31.3889C8.97266 31.8031 9.30844 32.1389 9.72266 32.1389H23.6115C24.0258 32.1389 24.3615 31.8031 24.3615 31.3889V18.1944C24.3615 16.6274 23.0952 15.3611 21.5282 15.3611H11.806C10.239 15.3611 8.97266 16.6274 8.97266 18.1944V31.3889Z" stroke="white" stroke-width="1.5" stroke-miterlimit="10" stroke-linecap="round" stroke-linejoin="round"/>
<path d="M8.97266 31.3889C8.97266 31.8031 9.30844 32.1389 9.72266 32.1389H23.6115C24.0258 32.1389 24.3615 31.8031 24.3615 31.3889V18.1944C24.3615 16.6274 23.0952 15.3611 21.5282 15.3611H11.806C10.239 15.3611 8.97266 16.6274 8.97266 18.1944V31.3889Z" stroke="black" stroke-width="1.5" stroke-miterlimit="10" stroke-linecap="round" stroke-linejoin="round"/>
<path d="M13.8887 23.4028V25.4861" stroke="white" stroke-width="1.5" stroke-miterlimit="10" stroke-linecap="round" stroke-linejoin="round"/>
<path d="M13.8887 23.4028V25.4861" stroke="black" stroke-width="1.5" stroke-miterlimit="10" stroke-linecap="round" stroke-linejoin="round"/>
</svg>
