<svg width="20" height="20" viewBox="0 0 20 20" fill="none" xmlns="http://www.w3.org/2000/svg">
<path d="M10.5165 17.3416C10.2332 17.4416 9.7665 17.4416 9.48317 17.3416C7.0665 16.5166 1.6665 13.075 1.6665 7.24165C1.6665 4.66665 3.7415 2.58331 6.29984 2.58331C7.8165 2.58331 9.15817 3.31665 9.99984 4.44998C10.8415 3.31665 12.1915 2.58331 13.6998 2.58331C16.2582 2.58331 18.3332 4.66665 18.3332 7.24165C18.3332 13.075 12.9332 16.5166 10.5165 17.3416Z" fill="#E74C3C"/>
<path d="M15.6351 7.7679C15.6101 8.11873 15.3184 8.3929 14.9767 8.40207C14.7934 8.38457 14.6184 8.30207 14.5017 8.1604C14.3851 8.01873 14.3276 7.83457 14.3434 7.64373V7.6179C14.3434 7.0354 13.9859 6.50957 13.4517 6.30957C13.1017 6.1854 12.9184 5.80207 13.0351 5.45207C13.1601 5.10207 13.5351 4.9179 13.8767 5.0354C14.9526 5.44373 15.6601 6.50123 15.6351 7.66873V7.7679Z" fill="white"/>
</svg>
