<svg width="24" height="24" viewBox="0 0 24 24" fill="none" xmlns="http://www.w3.org/2000/svg">
<g clip-path="url(#clip0_36_199)">
<path d="M5 10.5C3.9 10.5 3 11.4 3 12.5C3 13.6 3.9 14.5 5 14.5C6.1 14.5 7 13.6 7 12.5C7 11.4 6.1 10.5 5 10.5Z" stroke="#101010" stroke-width="1.5"/>
<path d="M19 10.5C17.9 10.5 17 11.4 17 12.5C17 13.6 17.9 14.5 19 14.5C20.1 14.5 21 13.6 21 12.5C21 11.4 20.1 10.5 19 10.5Z" stroke="#101010" stroke-width="1.5"/>
<path d="M12 10.5C10.9 10.5 10 11.4 10 12.5C10 13.6 10.9 14.5 12 14.5C13.1 14.5 14 13.6 14 12.5C14 11.4 13.1 10.5 12 10.5Z" stroke="#101010" stroke-width="1.5"/>
</g>
<defs>
<clipPath id="clip0_36_199">
<rect width="24" height="24" fill="white"/>
</clipPath>
</defs>
</svg>
