<svg width="18" height="18" viewBox="0 0 18 18" fill="none" xmlns="http://www.w3.org/2000/svg">
<path d="M12.0112 4.13614C12.0112 3.92288 11.8383 3.75 11.625 3.75C11.4118 3.75 11.2389 3.92288 11.2389 4.13614V13.3975L8.15918 10.3178C8.00839 10.167 7.76389 10.167 7.6131 10.3178C7.4623 10.4686 7.4623 10.7131 7.6131 10.8639L11.352 14.6028C11.393 14.6438 11.4409 14.6736 11.492 14.6923C11.5275 14.7054 11.5656 14.7134 11.6052 14.7154C11.6117 14.7157 11.6184 14.7159 11.625 14.7159C11.733 14.7159 11.8307 14.6715 11.9008 14.6L15.6369 10.8639C15.7877 10.7131 15.7877 10.4686 15.6369 10.3178C15.4861 10.167 15.2416 10.167 15.0908 10.3178L12.0112 13.3975V4.13614Z" fill="#0B0C15"/>
<path fill-rule="evenodd" clip-rule="evenodd" d="M1.6875 5.92125C1.6875 5.65408 1.90408 5.4375 2.17125 5.4375H9.26625C9.53342 5.4375 9.75 5.65408 9.75 5.92125C9.75 6.18842 9.53342 6.405 9.26625 6.405H2.17125C1.90408 6.405 1.6875 6.18842 1.6875 5.92125ZM1.6875 9.14625C1.6875 8.87908 1.90408 8.6625 2.17125 8.6625H7.33125C7.59842 8.6625 7.815 8.87908 7.815 9.14625C7.815 9.41342 7.59842 9.63 7.33125 9.63H2.17125C1.90408 9.63 1.6875 9.41342 1.6875 9.14625ZM2.17125 11.8875C1.90408 11.8875 1.6875 12.1041 1.6875 12.3713C1.6875 12.6384 1.90408 12.855 2.17125 12.855H6.04125C6.30842 12.855 6.525 12.6384 6.525 12.3713C6.525 12.1041 6.30842 11.8875 6.04125 11.8875H2.17125Z" fill="#0B0C15"/>
</svg>
